
<svg xmlns="http://www.w3.org/2000/svg" version="1.1" xmlns:xlink="http://www.w3.org/1999/xlink" preserveAspectRatio="none" x="0px" y="0px" width="597px" height="588px" viewBox="0 0 597 588">
<defs>
<g id="Layer0_0_FILL">
<path fill="#FFFFFF" stroke="none" d="
M 431.6 403.5
Q 415.2 392.4 407.75 413.6 405.4 419.75 404 428.3
L 503.7 500.45 467.2 392.95
Q 460.2 404.95 451.65 407.8 442.4 410.85 431.6 403.5
M 388.2 156.7
Q 399.75 155.7 409.1 149.5 398.85 152.6 388.2 156.7 Z"/>

<path fill="#2121EF" stroke="none" d="
M 298.75 432.1
Q 240.65 452.7 229.75 432.1
L 209.25 495.75 298.75 432.1
M 26.1 161.25
Q 9.65 172.65 5.45 187.45
L 4 392.95
Q 5 372.55 26.1 358.1 48.5 342.95 80.2 342.95 88.15 342.95 95.5 343.85 98.05 344.2 100.5 344.65 119.4 348.1 134.2 358.1 155.5 372.55 156.5 392.95
L 156.85 392.95 156.85 248.75 118.45 220.85 156.85 220.85 156.85 196 156.5 196
Q 155.5 175.75 134.2 161.25 124.4 154.5 112.65 150.85 108.75 149.5 104.5 148.6 93.15 146.15 80.2 146.15 48.5 146.15 26.1 161.25 Z"/>

<path fill="#7DDB25" stroke="none" d="
M 202.15 432.1
L 202.15 432.3
Q 181.9 433.3 167.3 454.6 161.5 462.95 158.1 472.85 155.25 480.2 153.9 488.1 152.15 497.8 152.15 508.6 152.15 540.2 167.3 562.6 181.9 583.8 202.15 584.8
L 399 584.8
Q 378.7 583.8 364.25 562.6 351.55 543.85 349.55 518.6 349 513.7 349 508.6 349 493.2 352.65 480.2 356.3 466.05 364.25 454.6 378.7 433.3 399 432.3
L 298.75 432.1 209.25 495.75 229.75 432.1 202.15 432.1
M 118.45 220.85
L 156.85 248.75
Q 185.9 234.75 156.85 220.85
L 118.45 220.85 Z"/>

<path fill="#F9F237" stroke="none" d="
M 26.1 358.1
Q 5 372.55 4 392.95 10.85 438.35 25.35 473.05 27.7 479.1 30.55 484.9 34.85 493.9 39.75 502.1 50.5 520.25 64.35 534.5 71 541.55 78.45 547.55 118.85 580.5 190.1 584.35 196.05 584.7 202.15 584.8 181.9 583.8 167.3 562.6 152.15 540.2 152.15 508.6 152.15 497.8 153.9 488.1 155.25 480.2 158.1 472.85 161.5 462.95 167.3 454.6 181.9 433.3 202.15 432.3
L 202.15 432.1
Q 162.65 423.75 156.85 392.95
L 156.5 392.95
Q 155.5 372.55 134.2 358.1 119.4 348.1 100.5 344.65 98.05 344.2 95.5 343.85 88.15 342.95 80.2 342.95 48.5 342.95 26.1 358.1 Z"/>

<path fill="#F94E34" stroke="none" d="
M 229.4 33.85
Q 227.4 29.8 224.95 26.25 210.4 5.05 190.1 4 36.15 7.7 5.45 187.45 9.65 172.65 26.1 161.25 48.5 146.15 80.2 146.15 93.15 146.15 104.5 148.6 108.75 149.5 112.65 150.85 124.4 154.5 134.2 161.25 155.5 175.75 156.5 196
L 156.85 196
Q 165.65 160.6 190.1 156.85
L 190.1 156.6
Q 210.4 155.55 224.95 134.25 238.2 114.75 239.9 87.85 240.1 84.15 240.1 80.25 240.1 53.7 229.4 33.85 Z"/>

<path fill="#373737" stroke="none" d="
M 584.9 392.95
L 467.2 392.95 503.7 500.45 404 428.3
Q 402.75 430.35 399 432.3 378.7 433.3 364.25 454.6 356.3 466.05 352.65 480.2 349 493.2 349 508.6 349 513.7 349.55 518.6 351.55 543.85 364.25 562.6 378.7 583.8 399 584.8 478.15 583 524.9 534.5 570.75 486.5 584.9 392.95
M 386.95 156.85
L 386.95 156.7 351.2 51.2 317.45 156.85
Q 340.2 189.25 357 162.5 369.15 143.05 386.95 156.85 Z"/>

<path fill="#FDD144" stroke="none" d="
M 387.15 157.05
L 386.95 156.85
Q 369.15 143.05 357 162.5 340.2 189.25 317.45 156.85
L 296.85 221.05 156.85 220.85
Q 185.9 234.75 156.85 248.75
L 263.8 326.35 230.1 431.35 229.75 432.1
Q 240.65 452.7 298.75 432.1
L 354.55 392.4 404 428.3
Q 405.4 419.75 407.75 413.6 415.2 392.4 431.6 403.5 442.4 410.85 451.65 407.8 460.2 404.95 467.2 392.95
L 444.95 327 593 221.5 408.9 221.2 387.15 157.05 Z"/>

<path fill="#FFCC33" stroke="none" d="
M 386.95 156.85
L 387.15 157.05 386.95 156.7 386.95 156.85 Z"/>

<path fill="#00FF00" stroke="none" d="
M 387.15 157.05
Q 387.6 156.85 388.2 156.7 387.6 156.7 386.95 156.7
L 387.15 157.05 Z"/>

<path fill="#F7F7F7" stroke="none" d="
M 424.05 26.4
Q 409.45 5.15 411.65 4
L 190.1 4
Q 210.4 5.05 224.95 26.25 227.4 29.8 229.4 33.85 240.1 53.7 240.1 80.25 240.1 84.15 239.9 87.85 238.2 114.75 224.95 134.25 210.4 155.55 190.1 156.6
L 190.1 156.85 317.45 156.85 351.2 51.2 386.95 156.7
Q 387.6 156.7 388.2 156.7 398.85 152.6 409.1 149.5 417.45 144.05 424.05 134.35 436.8 115.55 438.85 89.95 439.2 85.25 439.2 80.35 439.2 63.15 434.55 48.55 430.8 36.5 424.05 26.4 Z"/>

<path fill="#D6A73C" stroke="none" d="
M 549.05 86.6
Q 545.7 81.15 542.4 76.15 494.25 6.2 411.65 4 409.45 5.15 424.05 26.4 430.8 36.5 434.55 48.55 439.2 63.15 439.2 80.35 439.2 85.25 438.85 89.95 436.8 115.55 424.05 134.35 417.45 144.05 409.1 149.5 519.55 116.7 584.9 196 582.3 179 578.65 163.65 570.85 130.35 558.35 103.95 554.05 94.95 549.05 86.6 Z"/>
</g>

<path id="Layer0_0_1_STROKES" stroke="#FFFFFF" stroke-width="2" stroke-linejoin="round" stroke-linecap="round" fill="none" d="
M 409.1 149.5
Q 519.55 116.7 584.9 196 582.3 179 578.65 163.65 570.85 130.35 558.35 103.95 554.05 94.95 549.05 86.6 545.7 81.15 542.4 76.15 494.25 6.2 411.65 4
M 388.2 156.7
Q 387.6 156.85 387.15 157.05
L 408.9 221.2 593 221.5 444.95 327 467.2 392.95 584.9 392.95
Q 570.75 486.5 524.9 534.5 478.15 583 399 584.8
L 202.15 584.8
Q 196.05 584.7 190.1 584.35 118.85 580.5 78.45 547.55 71 541.55 64.35 534.5 50.5 520.25 39.75 502.1 34.85 493.9 30.55 484.9 27.7 479.1 25.35 473.05 10.85 438.35 4 392.95
L 5.45 187.45
Q 36.15 7.7 190.1 4
L 411.65 4
M 386.95 156.85
L 387.15 157.05
M 317.45 156.85
L 296.85 221.05 156.85 220.85
M 156.85 248.75
L 263.8 326.35 230.1 431.35 229.75 432.1
M 298.75 432.1
L 354.55 392.4 404 428.3
Q 402.75 430.35 399 432.3
M 386.95 156.7
L 386.95 156.85
M 317.45 156.85
L 190.1 156.85
Q 165.65 160.6 156.85 196
L 156.85 220.85
M 156.85 248.75
L 156.85 392.95
Q 162.65 423.75 202.15 432.1
L 229.75 432.1
M 399 432.3
L 298.75 432.1
M 388.2 156.7
Q 398.85 152.6 409.1 149.5"/>
</defs>

<g transform="matrix( 1, 0, 0, 1, 0,0) ">
<use xlink:href="#Layer0_0_FILL"/>

<use xlink:href="#Layer0_0_1_STROKES"/>
</g>
</svg>
