
<svg xmlns="http://www.w3.org/2000/svg" version="1.1" xmlns:xlink="http://www.w3.org/1999/xlink" preserveAspectRatio="none" x="0px" y="0px" width="553px" height="546px" viewBox="0 0 553 546">
<defs>
<g id="Layer0_0_FILL">
<path fill="#232323" stroke="none" d="
M 373.75 396.35
Q 372.5 398.2 369.1 400.15 350.4 400.95 337.15 420.45 329.95 431.1 326.5 444 373.85 443.7 419.3 429.4
L 373.75 396.35
M 539.8 363.85
L 431.75 363.85 450.05 417.9
Q 495.95 398.2 539.8 363.85 Z"/>

<path fill="#54A805" stroke="none" d="
M 277 399.85
L 220.7 439.95 326.5 444
Q 329.95 431.1 337.15 420.45 350.4 400.95 369.1 400.15
L 277 399.85
M 188.3 399.85
L 188.3 400.15
Q 169.7 400.95 156.4 420.45 151.15 428.25 147.95 437.25
L 201.1 439.3 213.75 399.85 188.3 399.85 Z"/>

<path fill="#0000FF" stroke="none" d="
M 230.3 409.15
L 194.95 458.3 220.7 439.95 277 399.85
Q 246.65 410.55 230.3 409.15 Z"/>

<path fill="#FFBF00" stroke="none" d="
M 213.75 399.85
Q 218.05 408.05 230.3 409.15
L 325.25 277.3 244.9 302.85 213.75 399.85
M 328.1 276.25
L 411.2 303.35 547.3 206.45 328.1 276.25 Z"/>

<path fill="#0000CD" stroke="none" d="
M 230.3 409.15
Q 218.05 408.05 213.75 399.85
L 201.1 439.3 194.95 458.3 230.3 409.15 Z"/>

<path fill="#6DDB06" stroke="none" d="
M 323.65 479.2
Q 323.2 474.75 323.2 470.05 323.2 456.05 326.5 444
L 220.7 439.95 194.95 458.3 201.1 439.3 147.95 437.25
Q 145.4 444 144.05 451.25 142.5 460.1 142.5 470.05 142.5 499.15 156.4 519.6 169.45 538.8 187.65 540.15 187.975 540.175 188.3 540.2
L 369.1 540.2
Q 350.4 539.15 337.15 519.6 325.45 502.45 323.65 479.2 Z"/>

<path fill="#373737" stroke="none" d="
M 323.2 470.05
Q 323.2 474.75 323.65 479.2 325.45 502.45 337.15 519.6 350.4 539.15 369.1 540.2 441.8 538.4 484.6 493.85 526.7 449.8 539.8 363.85 495.95 398.2 450.05 417.9
L 465.3 462.55 419.3 429.4
Q 373.85 443.7 326.5 444 323.2 456.05 323.2 470.05
M 326.2 157.9
L 325.25 50.1 314.25 84.85 294.3 147.15
Q 312.2 172.85 326.2 157.9 Z"/>

<path fill="#CDC610" stroke="none" d="
M 146.8 363.85
L 146.5 363.85
Q 145.5 345.25 125.95 331.9 112.35 322.65 94.95 319.6 95.6 400.15 147.85 437.25
L 147.95 437.25
Q 151.15 428.25 156.4 420.45 169.7 400.95 188.3 400.15
L 188.3 399.85
Q 152.1 392.25 146.8 363.85 Z"/>

<path fill="#F9F113" stroke="none" d="
M 76.4 317.95
Q 47.35 317.95 26.8 331.9 7.3 345.25 6.5 363.85 12.8 405.6 26.15 437.5 28.25 442.95 30.85 448.25 34.7 456.55 39.3 464.25 49.2 480.8 61.8 493.85 67.9 500.3 74.9 505.95 111.95 536.15 177.3 539.75 182.45 539.95 187.65 540.15 169.45 538.8 156.4 519.6 142.5 499.15 142.5 470.05 142.5 460.1 144.05 451.25 145.4 444 147.95 437.25
L 147.85 437.25
Q 95.6 400.15 94.95 319.6 92.75 319.1 90.5 318.9 83.75 317.95 76.4 317.95 Z"/>

<path fill="#00CB00" stroke="none" d="
M 146.8 231.6
Q 157.25 226.5 159.6 221.5
L 111.55 205.95 146.8 231.6 Z"/>

<path fill="#00FF00" stroke="none" d="
M 159.6 221.5
Q 163 213.6 146.8 205.95
L 111.55 205.95 159.6 221.5
M 359.15 146.95
Q 358.6 146.95 358.1 146.95
L 358.2 147.25
Q 358.6 147.15 359.15 146.95 Z"/>

<path fill="#0000CC" stroke="none" d="
M 106.25 141.55
Q 102.65 140.45 98.8 139.5
L 94.95 319.6
Q 112.35 322.65 125.95 331.9 145.5 345.25 146.5 363.85
L 146.8 363.85 146.8 231.6 111.55 205.95 146.8 205.95 146.8 183.15 146.5 183.15
Q 145.5 164.45 125.95 151.15 116.95 145.05 106.25 141.55 Z"/>

<path fill="#0000EF" stroke="none" d="
M 26.8 151.15
Q 11.6 161.55 7.7 175.2
L 6.5 363.85
Q 7.3 345.25 26.8 331.9 47.35 317.95 76.4 317.95 83.75 317.95 90.5 318.9 92.75 319.1 94.95 319.6
L 98.8 139.5
Q 88.35 137.25 76.4 137.25 47.35 137.25 26.8 151.15 Z"/>

<path fill="#CCCCCC" stroke="none" d="
M 177.3 146.85
L 177.3 147.15 294.3 147.15 314.25 84.85 223.05 83.8
Q 221.45 108.45 209.25 126.35 195.95 145.85 177.3 146.85
M 381.65 374.25
Q 379 377.45 377.1 382.85 374.95 388.5 373.75 396.35
L 419.3 429.4 465.3 462.55 399.9 374.15 399.8 373.95
Q 399.35 373.8 399.05 373.6 388.15 366.35 381.65 374.25
M 378.45 140.45
Q 386 135.45 392 126.55 403.75 109.15 405.6 85.65
L 337.15 84.95 358.1 146.95
Q 358.6 146.95 359.15 146.95 368.95 143.3 378.45 140.45 Z"/>

<path fill="#CD2810" stroke="none" d="
M 223.05 83.8
L 222.85 83.8
Q 128.1 83.9 98.8 139.5 102.65 140.45 106.25 141.55 116.95 145.05 125.95 151.15 145.5 164.45 146.5 183.15
L 146.8 183.15
Q 154.8 150.55 177.3 147.15
L 177.3 146.85
Q 195.95 145.85 209.25 126.35 221.45 108.45 223.05 83.8 Z"/>

<path fill="#F93113" stroke="none" d="
M 213.45 34.2
Q 211.6 30.45 209.25 27.2 196.15 7.95 177.9 6.8
L 177.3 6.8
Q 36.05 10.1 7.7 175.2 11.6 161.55 26.8 151.15 47.35 137.25 76.4 137.25 88.35 137.25 98.8 139.5 128.1 83.9 222.85 83.8
L 223.05 83.8
Q 223.15 80.3 223.15 76.75 223.15 52.45 213.45 34.2 Z"/>

<path fill="#F7F7F7" stroke="none" d="
M 400.2 374.25
Q 400 374.15 399.9 374.15
L 465.3 462.55 450.05 417.9 431.75 363.85
Q 427.7 370.7 423.25 374.25 420.4 376.6 417.35 377.65 409.4 380.2 400.2 374.25
M 405.6 85.65
Q 405.9 81.35 405.9 76.85 405.9 61 402.65 49.05 399.35 37 393.15 24.3 388.35 14.5 385.8 10.3 381.35 8.05 336.1 7.05 290.7 5.95 177.9 6.8 196.15 7.95 209.25 27.2 211.6 30.45 213.45 34.2 223.15 52.45 223.15 76.75 223.15 80.3 223.05 83.8
L 314.25 84.85 325.25 50.1 337.15 84.95 405.6 85.65 Z"/>

<path fill="#FFE536" stroke="none" d="
M 326.2 275.65
L 326.7 275.25 275.4 206.05 146.8 205.95
Q 163 213.6 159.6 221.5
L 326.2 275.65
M 358.2 147.25
L 358.1 147.15
Q 341.75 134.4 330.55 152.3 328.35 155.55 326.2 157.9
L 327.4 274.2 377.5 204.55 358.2 147.25 Z"/>

<path fill="#CB9800" stroke="none" d="
M 327.5 276.55
L 327.4 276.55 328.2 363.45 373.75 396.35
Q 374.95 388.5 377.1 382.85 379 377.45 381.65 374.25 388.15 366.35 399.05 373.6 399.35 373.8 399.8 373.95
L 327.5 276.55
M 325.25 277.3
L 326.2 275.65 159.6 221.5
Q 157.25 226.5 146.8 231.6
L 244.9 302.85 325.25 277.3
M 326.7 275.25
L 327.4 274.2 326.2 157.9
Q 312.2 172.85 294.3 147.15
L 275.4 206.05 326.7 275.25 Z"/>

<path fill="#E4AB00" stroke="none" d="
M 327.4 276.55
L 325.25 277.3 230.3 409.15
Q 246.65 410.55 277 399.85
L 328.2 363.45 327.4 276.55 Z"/>

<path fill="#FFFF76" stroke="none" d="
M 378.1 206.15
L 377.5 204.55 327.4 274.2 326.7 275.25 326.2 275.65 325.25 277.3 327.4 276.55 327.5 276.55 399.8 373.95 399.9 374.15
Q 400 374.15 400.2 374.25 409.4 380.2 417.35 377.65 420.4 376.6 423.25 374.25 427.7 370.7 431.75 363.85
L 411.2 303.35 328.1 276.25 547.3 206.45 378.1 206.15 Z"/>

<path fill="#FFFFFF" stroke="none" d="
M 359.15 146.95
Q 369.8 146.2 378.45 140.45 368.95 143.3 359.15 146.95 Z"/>

<path fill="#FFCC33" stroke="none" d="
M 358.1 146.95
L 358.1 147.15 358.2 147.25 358.1 146.95 Z"/>

<path fill="#926C15" stroke="none" d="
M 392 126.55
Q 386 135.45 378.45 140.45 479.7 110.15 539.8 183.15 514.15 98.1 405.6 85.65 403.75 109.15 392 126.55 Z"/>

<path fill="#5F5F5F" stroke="none" d="
M 337.15 84.95
L 325.25 50.1 326.2 157.9
Q 328.35 155.55 330.55 152.3 341.75 134.4 358.1 147.15
L 358.1 146.95 337.15 84.95 Z"/>

<path fill="#D69E1F" stroke="none" d="
M 515.5 98.5
Q 511.35 90.25 506.8 82.65 503.8 77.6 500.65 73.05 457.1 9.7 385.8 10.3 388.35 14.5 393.15 24.3 399.35 37 402.65 49.05 405.9 61 405.9 76.85 405.9 81.35 405.6 85.65 514.15 98.1 539.8 183.15 537.35 167.5 534.05 153.35 526.9 122.75 515.5 98.5 Z"/>
</g>

<path id="Layer0_0_1_STROKES" stroke="#333333" stroke-width="0.1" stroke-linejoin="round" stroke-linecap="round" fill="none" d="
M 177.9 6.8
L 177.3 6.8"/>

<path id="Layer0_0_2_STROKES" stroke="#FFFFFF" stroke-width="2" stroke-linejoin="round" stroke-linecap="round" fill="none" d="
M 539.8 183.15
Q 537.35 167.5 534.05 153.35 526.9 122.75 515.5 98.5 511.35 90.25 506.8 82.65 503.8 77.6 500.65 73.05 457.1 9.7 385.8 10.3
M 378.45 140.45
Q 479.7 110.15 539.8 183.15
M 358.2 147.25
L 377.5 204.55 378.1 206.15 547.3 206.45 411.2 303.35 431.75 363.85 539.8 363.85
Q 526.7 449.8 484.6 493.85 441.8 538.4 369.1 540.2
L 188.3 540.2
Q 187.975 540.175 187.65 540.15 182.45 539.95 177.3 539.75 111.95 536.15 74.9 505.95 67.9 500.3 61.8 493.85 49.2 480.8 39.3 464.25 34.7 456.55 30.85 448.25 28.25 442.95 26.15 437.5 12.8 405.6 6.5 363.85
L 7.7 175.2
Q 36.05 10.1 177.3 6.8
M 177.9 6.8
Q 290.7 5.95 336.1 7.05 381.35 8.05 385.8 10.3
M 359.15 146.95
Q 368.95 143.3 378.45 140.45
M 294.3 147.15
L 275.4 206.05
M 146.8 183.15
Q 154.8 150.55 177.3 147.15
L 294.3 147.15
M 146.8 231.6
L 146.8 363.85
M 146.8 183.15
L 146.8 205.95
M 146.8 231.6
L 244.9 302.85
M 277 399.85
L 328.2 363.45 373.75 396.35
Q 372.5 398.2 369.1 400.15
M 146.8 363.85
Q 152.1 392.25 188.3 399.85
M 275.4 206.05
L 146.8 205.95
M 369.1 400.15
L 277 399.85
M 188.3 399.85
L 213.75 399.85 244.9 302.85"/>
</defs>

<g transform="matrix( 1, 0, 0, 1, 0,0) ">
<use xlink:href="#Layer0_0_FILL"/>

<use xlink:href="#Layer0_0_1_STROKES"/>

<use xlink:href="#Layer0_0_2_STROKES"/>
</g>
</svg>
